# xmcd
# 
# Track frame offsets:
#     150
#     27230
#     49050
#     74282
#     94415
#     121417
#     138942
#     159340
# 
# Disc length: 2462
# 
# Revision: 6
# Processed by: cddbd v1.5.2PL0 Copyright (c) Steve Scherf et al.
# Submitted via: fre:ac v1.0.17
# 
DISCID=68099c08
DTITLE=Leonard Cohen - I'm your man
DYEAR=1988
DGENRE=Folk
TTITLE0=First we take Manhattan
TTITLE1=Ain't no cure for love
TTITLE2=Everybody knows
TTITLE3=I'm your man
TTITLE4=Take this waltz
TTITLE5=Jazz police
TTITLE6=I can't forget
TTITLE7=Tower of song
EXTD=YEAR: 1988
EXTT0=
EXTT1=
EXTT2=
EXTT3=
EXTT4=
EXTT5=
EXTT6=
EXTT7=
PLAYORDER=
